<mxfile host="app.diagrams.net" modified="2021-06-16T15:00:05.979Z" agent="5.0 (Windows NT 10.0; Win64; x64) AppleWebKit/537.36 (KHTML, like Gecko) Chrome/91.0.4472.106 Safari/537.36" etag="IpOJZMtC5YLeuZxleQJK" version="14.7.6" type="github">
  <diagram id="A3XWHSS86rBna9IXd0iq" name="Page-1">
    <mxGraphModel dx="1249" dy="1094" grid="1" gridSize="10" guides="1" tooltips="1" connect="1" arrows="1" fold="1" page="1" pageScale="1" pageWidth="827" pageHeight="1169" math="0" shadow="1">
      <root>
        <mxCell id="0" />
        <mxCell id="1" parent="0" />
        <mxCell id="5c0QRYMm_emFLiEkocxq-1" value="" style="verticalLabelPosition=bottom;html=1;verticalAlign=top;align=center;shape=mxgraph.floorplan.chair;shadow=0;direction=north;sketch=1;fillColor=#994C00;" vertex="1" parent="1">
          <mxGeometry x="1732.47" y="465" width="31" height="28" as="geometry" />
        </mxCell>
        <mxCell id="5c0QRYMm_emFLiEkocxq-2" value="" style="shape=ellipse;shadow=0;sketch=1;fillColor=#994C00;" vertex="1" parent="1">
          <mxGeometry x="1748.47" y="450" width="59" height="58" as="geometry" />
        </mxCell>
        <mxCell id="5c0QRYMm_emFLiEkocxq-3" value="" style="verticalLabelPosition=bottom;html=1;verticalAlign=top;align=center;shape=mxgraph.floorplan.wallCorner;direction=south;fillColor=#a0522d;fontColor=#ffffff;shadow=1;rounded=1;strokeColor=#6D1F00;sketch=1;" vertex="1" parent="1">
          <mxGeometry x="2162" y="288" width="290" height="190" as="geometry" />
        </mxCell>
        <mxCell id="5c0QRYMm_emFLiEkocxq-4" value="" style="verticalLabelPosition=bottom;html=1;verticalAlign=top;align=center;shape=mxgraph.floorplan.wall;fontColor=#ffffff;shadow=1;rounded=1;strokeColor=#6D1F00;fillColor=#5C2F1A;sketch=1;" vertex="1" parent="1">
          <mxGeometry x="840" y="288" width="1058.47" height="10" as="geometry" />
        </mxCell>
        <mxCell id="5c0QRYMm_emFLiEkocxq-5" value="" style="verticalLabelPosition=bottom;html=1;verticalAlign=top;align=center;shape=mxgraph.floorplan.doorLeft;aspect=fixed;fillColor=#a0522d;fontColor=#ffffff;shadow=1;rounded=1;strokeColor=#6D1F00;sketch=1;" vertex="1" parent="1">
          <mxGeometry x="1922" y="423" width="47.06" height="50" as="geometry" />
        </mxCell>
        <mxCell id="5c0QRYMm_emFLiEkocxq-6" value="" style="verticalLabelPosition=bottom;html=1;verticalAlign=top;align=center;shape=mxgraph.floorplan.wall;fillColor=#a0522d;fontColor=#ffffff;shadow=1;rounded=1;strokeColor=#6D1F00;sketch=1;" vertex="1" parent="1">
          <mxGeometry x="840" y="423" width="1082" height="10" as="geometry" />
        </mxCell>
        <mxCell id="5c0QRYMm_emFLiEkocxq-7" value="" style="verticalLabelPosition=bottom;html=1;verticalAlign=top;align=center;shape=mxgraph.floorplan.windowGarden;dx=0.25;rotation=0;fillColor=#a0522d;fontColor=#ffffff;shadow=1;rounded=1;strokeColor=#6D1F00;sketch=1;" vertex="1" parent="1">
          <mxGeometry x="1898.47" y="278" width="100" height="20" as="geometry" />
        </mxCell>
        <mxCell id="5c0QRYMm_emFLiEkocxq-8" value="" style="verticalLabelPosition=bottom;html=1;verticalAlign=top;align=center;shape=mxgraph.floorplan.wall;fillColor=#a0522d;fontColor=#ffffff;shadow=1;rounded=1;strokeColor=#6D1F00;sketch=1;" vertex="1" parent="1">
          <mxGeometry x="1998.47" y="288" width="93.53" height="10" as="geometry" />
        </mxCell>
        <mxCell id="5c0QRYMm_emFLiEkocxq-9" value="" style="shape=dimension;direction=north;whiteSpace=wrap;html=1;align=right;points=[];verticalAlign=middle;fillColor=#a0522d;fontColor=#ffffff;shadow=1;rounded=1;strokeColor=#6D1F00;sketch=1;" vertex="1" parent="1">
          <mxGeometry x="2302" y="298" width="40" height="125" as="geometry" />
        </mxCell>
        <mxCell id="5c0QRYMm_emFLiEkocxq-10" value="" style="verticalLabelPosition=bottom;html=1;verticalAlign=top;align=center;shape=mxgraph.floorplan.doorUneven;dx=0.5;rotation=-180;fillColor=#a0522d;fontColor=#ffffff;shadow=1;rounded=1;strokeColor=#6D1F00;sketch=1;" vertex="1" parent="1">
          <mxGeometry x="2092" y="261" width="70" height="37" as="geometry" />
        </mxCell>
        <mxCell id="5c0QRYMm_emFLiEkocxq-11" value="" style="verticalLabelPosition=bottom;html=1;verticalAlign=top;align=center;shape=mxgraph.floorplan.wall;direction=south;fillColor=#a0522d;fontColor=#ffffff;shadow=1;rounded=1;strokeColor=#6D1F00;sketch=1;" vertex="1" parent="1">
          <mxGeometry x="1732" y="228" width="130" height="60" as="geometry" />
        </mxCell>
        <mxCell id="5c0QRYMm_emFLiEkocxq-12" value="" style="verticalLabelPosition=bottom;html=1;verticalAlign=top;align=center;shape=mxgraph.floorplan.wall;direction=south;fillColor=#a0522d;fontColor=#ffffff;shadow=1;rounded=1;strokeColor=#6D1F00;sketch=1;" vertex="1" parent="1">
          <mxGeometry x="1992" y="434.5" width="10" height="58.5" as="geometry" />
        </mxCell>
        <mxCell id="5c0QRYMm_emFLiEkocxq-13" value="" style="verticalLabelPosition=bottom;html=1;verticalAlign=top;align=center;shape=mxgraph.floorplan.wallCorner;direction=south;fillColor=#a0522d;fontColor=#ffffff;shadow=1;rounded=1;strokeColor=#6D1F00;sketch=1;" vertex="1" parent="1">
          <mxGeometry x="1972" y="422.15999999999997" width="380" height="60.84" as="geometry" />
        </mxCell>
        <mxCell id="5c0QRYMm_emFLiEkocxq-14" value="" style="verticalLabelPosition=bottom;html=1;verticalAlign=top;align=center;shape=mxgraph.floorplan.wall;direction=south;fillColor=#a0522d;fontColor=#ffffff;shadow=1;rounded=1;strokeColor=#6D1F00;sketch=1;" vertex="1" parent="1">
          <mxGeometry x="2352" y="238" width="10" height="50" as="geometry" />
        </mxCell>
        <mxCell id="5c0QRYMm_emFLiEkocxq-17" value="" style="verticalLabelPosition=bottom;html=1;verticalAlign=top;align=center;shape=mxgraph.floorplan.table;sketch=1;shadow=1;fillColor=#994C00;" vertex="1" parent="1">
          <mxGeometry x="2212" y="238" width="90" height="50" as="geometry" />
        </mxCell>
        <mxCell id="5c0QRYMm_emFLiEkocxq-18" value="" style="verticalLabelPosition=bottom;html=1;verticalAlign=top;align=center;shape=mxgraph.floorplan.chair;shadow=0;direction=north;sketch=1;fillColor=#994C00;rotation=90;" vertex="1" parent="1">
          <mxGeometry x="1762.47" y="438.58" width="31" height="28" as="geometry" />
        </mxCell>
        <mxCell id="5c0QRYMm_emFLiEkocxq-19" value="" style="verticalLabelPosition=bottom;html=1;verticalAlign=top;align=center;shape=mxgraph.floorplan.chair;shadow=0;direction=north;sketch=1;fillColor=#994C00;rotation=-90;" vertex="1" parent="1">
          <mxGeometry x="1762.47" y="493" width="31" height="28" as="geometry" />
        </mxCell>
        <mxCell id="5c0QRYMm_emFLiEkocxq-20" value="" style="verticalLabelPosition=bottom;html=1;verticalAlign=top;align=center;shape=mxgraph.floorplan.chair;shadow=0;direction=north;sketch=1;fillColor=#994C00;rotation=-180;" vertex="1" parent="1">
          <mxGeometry x="1792.97" y="466.58" width="31" height="28" as="geometry" />
        </mxCell>
        <mxCell id="5c0QRYMm_emFLiEkocxq-21" value="" style="verticalLabelPosition=bottom;html=1;verticalAlign=top;align=center;shape=mxgraph.floorplan.bed_double;shadow=1;sketch=1;fillColor=#994C00;" vertex="1" parent="1">
          <mxGeometry x="2098" y="438" width="128" height="138" as="geometry" />
        </mxCell>
      </root>
    </mxGraphModel>
  </diagram>
</mxfile>
